<svg preserveAspectRatio="none" width="100%" height="100%" overflow="visible" style="display: block;" viewBox="0 0 27 31.5" fill="none" xmlns="http://www.w3.org/2000/svg">
<g id="Container">
<path id="Icon" d="M0 31.5V16.5L2.3625 9.5625C2.5625 8.9125 2.9375 8.40625 3.4875 8.04375C4.0375 7.68125 4.625 7.5 5.25 7.5C5.45 7.5 5.65 7.51875 5.85 7.55625C6.05 7.59375 6.25 7.6625 6.45 7.7625L12.675 10.5H16.5V13.5H12L7.95 11.7375L6 17.625V31.5H0V31.5M9 27V24H27V27H9V27M24.75 22.5C24.125 22.5 23.5938 22.2812 23.1562 21.8438C22.7188 21.4062 22.5 20.875 22.5 20.25C22.5 19.625 22.7188 19.0938 23.1562 18.6562C23.5938 18.2188 24.125 18 24.75 18C25.375 18 25.9062 18.2188 26.3438 18.6562C26.7812 19.0938 27 19.625 27 20.25C27 20.875 26.7812 21.4062 26.3438 21.8438C25.9062 22.2812 25.375 22.5 24.75 22.5V22.5M15 22.5C14.175 22.5 13.4688 22.2062 12.8813 21.6187C12.2938 21.0312 12 20.325 12 19.5V18H9V15H13.5C13.925 15 14.2813 15.1437 14.5688 15.4312C14.8563 15.7187 15 16.075 15 16.5V18H18V15H21V19.5C21 20.325 20.7062 21.0312 20.1187 21.6187C19.5312 22.2062 18.825 22.5 18 22.5H15V22.5M7.5 6C6.675 6 5.96875 5.70625 5.38125 5.11875C4.79375 4.53125 4.5 3.825 4.5 3C4.5 2.175 4.79375 1.46875 5.38125 0.88125C5.96875 0.29375 6.675 0 7.5 0C8.325 0 9.03125 0.29375 9.61875 0.88125C10.2062 1.46875 10.5 2.175 10.5 3C10.5 3.825 10.2062 4.53125 9.61875 5.11875C9.03125 5.70625 8.325 6 7.5 6V6" fill="var(--fill-0, white)"/>
</g>
</svg>
