<svg preserveAspectRatio="none" width="100%" height="100%" overflow="visible" style="display: block;" viewBox="0 0 30 30" fill="none" xmlns="http://www.w3.org/2000/svg">
<g id="Container">
<path id="Icon" d="M19.5 30C19.075 30 18.7187 29.8563 18.4312 29.5688C18.1437 29.2813 18 28.925 18 28.5V26.8875C17.425 26.7875 16.8812 26.6437 16.3687 26.4562C15.8562 26.2687 15.375 26.0125 14.925 25.6875L13.425 27.1875C13.125 27.4625 12.7687 27.6062 12.3562 27.6187C11.9437 27.6312 11.5875 27.4875 11.2875 27.1875C10.9875 26.8875 10.8375 26.5312 10.8375 26.1187C10.8375 25.7062 10.9875 25.35 11.2875 25.05L12.825 23.5125C12.75 23.3875 12.675 23.2562 12.6 23.1187C12.525 22.9812 12.45 22.85 12.375 22.725L11.3625 20.7375V20.7375V20.7375L9.525 22.575C9.225 22.85 8.875 22.9938 8.475 23.0063C8.075 23.0188 7.725 22.875 7.425 22.575C7.125 22.275 6.975 21.925 6.975 21.525C6.975 21.125 7.125 20.775 7.425 20.475L9.2625 18.6V18.6V18.6L7.275 17.625C7.15 17.575 7.0375 17.5187 6.9375 17.4562C6.8375 17.3937 6.725 17.325 6.6 17.25L5.25 18.6C4.95 18.875 4.59375 19.0187 4.18125 19.0312C3.76875 19.0438 3.4125 18.9 3.1125 18.6C2.8125 18.3 2.6625 17.95 2.6625 17.55C2.6625 17.15 2.8125 16.8 3.1125 16.5L4.425 15.1875C4.075 14.7125 3.79375 14.2062 3.58125 13.6687C3.36875 13.1312 3.2125 12.575 3.1125 12H1.5C1.075 12 0.71875 11.8563 0.43125 11.5688C0.14375 11.2813 0 10.925 0 10.5C0 10.075 0.14375 9.71875 0.43125 9.43125C0.71875 9.14375 1.075 9 1.5 9H3.1875C3.3125 8.525 3.4625 8.075 3.6375 7.65C3.8125 7.225 4.0375 6.8125 4.3125 6.4125L3 5.1C2.7 4.8 2.55 4.45 2.55 4.05C2.55 3.65 2.7 3.3 3 3C3.3 2.7 3.65 2.55 4.05 2.55C4.45 2.55 4.8 2.7 5.1 3L6.4125 4.3125C6.8125 4.0375 7.225 3.8125 7.65 3.6375C8.075 3.4625 8.525 3.3125 9 3.1875V1.5C9 1.075 9.14375 0.71875 9.43125 0.43125C9.71875 0.14375 10.075 0 10.5 0C10.925 0 11.2813 0.14375 11.5688 0.43125C11.8563 0.71875 12 1.075 12 1.5V3.1125C12.6 3.2125 13.1688 3.375 13.7063 3.6C14.2438 3.825 14.75 4.1125 15.225 4.4625L16.5375 3.15C16.8375 2.85 17.1938 2.7 17.6063 2.7C18.0188 2.7 18.375 2.85 18.675 3.15C18.975 3.45 19.125 3.8 19.125 4.2C19.125 4.6 18.975 4.95 18.675 5.25L17.2875 6.6375C17.3375 6.7375 17.3937 6.8375 17.4562 6.9375C17.5187 7.0375 17.575 7.15 17.625 7.275L18.5625 9.15V9.15V9.15L20.2875 7.425C20.5875 7.125 20.9438 6.975 21.3563 6.975C21.7688 6.975 22.125 7.125 22.425 7.425C22.725 7.725 22.875 8.08125 22.875 8.49375C22.875 8.90625 22.725 9.2625 22.425 9.5625L20.625 11.325V11.325V11.325L22.725 12.375C22.875 12.45 23.0313 12.5312 23.1938 12.6187C23.3563 12.7062 23.5 12.8 23.625 12.9L25.125 11.4C25.425 11.1 25.775 10.95 26.175 10.95C26.575 10.95 26.925 11.1 27.225 11.4C27.525 11.7 27.675 12.0563 27.675 12.4688C27.675 12.8812 27.525 13.2375 27.225 13.5375L25.725 15C26.025 15.45 26.2687 15.925 26.4562 16.425C26.6437 16.925 26.7875 17.45 26.8875 18H28.5C28.925 18 29.2813 18.1437 29.5688 18.4312C29.8563 18.7187 30 19.075 30 19.5C30 19.925 29.8563 20.2813 29.5688 20.5688C29.2813 20.8563 28.925 21 28.5 21H26.8125C26.6875 21.475 26.5375 21.9187 26.3625 22.3312C26.1875 22.7437 25.9625 23.15 25.6875 23.55L26.9625 24.825C27.2625 25.125 27.4125 25.4812 27.4125 25.8937C27.4125 26.3062 27.2625 26.6625 26.9625 26.9625C26.6625 27.2375 26.3062 27.3812 25.8937 27.3937C25.4812 27.4062 25.125 27.2625 24.825 26.9625L23.5875 25.6875C23.1875 25.9625 22.775 26.1875 22.35 26.3625C21.925 26.5375 21.475 26.6875 21 26.8125V28.5C21 28.925 20.8563 29.2813 20.5688 29.5688C20.2813 29.8563 19.925 30 19.5 30V30M19.275 24C20.725 24 21.9188 23.45 22.8563 22.35C23.7938 21.25 24.15 19.975 23.925 18.525C23.8 17.775 23.5187 17.1 23.0812 16.5C22.6437 15.9 22.075 15.425 21.375 15.075L18.9 13.8C18.325 13.5 17.8063 13.1188 17.3438 12.6562C16.8812 12.1937 16.5 11.675 16.2 11.1L14.925 8.625C14.525 7.825 13.95 7.1875 13.2 6.7125C12.45 6.2375 11.625 6 10.725 6C9.275 6 8.08125 6.55 7.14375 7.65C6.20625 8.75 5.85 10.025 6.075 11.475C6.2 12.225 6.48125 12.9 6.91875 13.5C7.35625 14.1 7.925 14.575 8.625 14.925L11.1 16.2C11.675 16.5 12.1937 16.8812 12.6562 17.3438C13.1188 17.8063 13.5 18.325 13.8 18.9L15.075 21.375C15.475 22.175 16.05 22.8125 16.8 23.2875C17.55 23.7625 18.375 24 19.275 24V24M11.25 12.75C11.875 12.75 12.4062 12.5312 12.8438 12.0938C13.2812 11.6562 13.5 11.125 13.5 10.5C13.5 9.875 13.2812 9.34375 12.8438 8.90625C12.4062 8.46875 11.875 8.25 11.25 8.25C10.625 8.25 10.0938 8.46875 9.65625 8.90625C9.21875 9.34375 9 9.875 9 10.5C9 11.125 9.21875 11.6562 9.65625 12.0938C10.0938 12.5312 10.625 12.75 11.25 12.75V12.75M18.75 22.125C19.275 22.125 19.7187 21.9437 20.0812 21.5812C20.4437 21.2187 20.625 20.775 20.625 20.25C20.625 19.725 20.4437 19.2813 20.0812 18.9188C19.7187 18.5563 19.275 18.375 18.75 18.375C18.225 18.375 17.7813 18.5563 17.4188 18.9188C17.0563 19.2813 16.875 19.725 16.875 20.25C16.875 20.775 17.0563 21.2187 17.4188 21.5812C17.7813 21.9437 18.225 22.125 18.75 22.125V22.125M15 15V15V15V15V15V15V15V15V15V15V15V15V15V15V15V15V15V15V15V15V15V15" fill="var(--fill-0, white)"/>
</g>
</svg>
