<svg preserveAspectRatio="none" width="100%" height="100%" overflow="visible" style="display: block;" viewBox="0 0 21 27" fill="none" xmlns="http://www.w3.org/2000/svg">
<g id="Container">
<path id="Icon" d="M8.25 21.75H12.75V18H16.5V13.5H12.75V9.75H8.25V13.5H4.5V18H8.25V21.75V21.75M3 27C2.175 27 1.46875 26.7062 0.88125 26.1187C0.29375 25.5312 0 24.825 0 24V7.5C0 6.675 0.29375 5.96875 0.88125 5.38125C1.46875 4.79375 2.175 4.5 3 4.5H18C18.825 4.5 19.5312 4.79375 20.1187 5.38125C20.7062 5.96875 21 6.675 21 7.5V24C21 24.825 20.7062 25.5312 20.1187 26.1187C19.5312 26.7062 18.825 27 18 27H3V27M3 24H18V24V24V7.5V7.5V7.5H3V7.5V7.5V24V24V24V24M1.5 3V0H19.5V3H1.5V3M3 7.5V7.5V7.5V7.5V24V24V24V24V24V24V7.5V7.5V7.5V7.5" fill="var(--fill-0, white)"/>
</g>
</svg>
